<svg xmlns="http://www.w3.org/2000/svg" width="1200" height="630" viewBox="0 0 1200 630">
  <defs>
    <linearGradient id="bg" x1="0" y1="0" x2="1" y2="1">
      <stop offset="0%" stop-color="#020817"/>
      <stop offset="100%" stop-color="#0F172A"/>
    </linearGradient>
    <linearGradient id="accent" x1="0" y1="0" x2="1" y2="1">
      <stop offset="0%" stop-color="#22D3EE"/>
      <stop offset="100%" stop-color="#06B6D4"/>
    </linearGradient>
    <linearGradient id="shield-fill" x1="0" y1="0" x2="0" y2="1">
      <stop offset="0%" stop-color="#22D3EE" stop-opacity="0.15"/>
      <stop offset="100%" stop-color="#06B6D4" stop-opacity="0.05"/>
    </linearGradient>
  </defs>
  <!-- Background -->
  <rect width="1200" height="630" fill="url(#bg)"/>
  <!-- Grid pattern -->
  <g opacity="0.06" stroke="#22D3EE" stroke-width="0.5">
    <line x1="0" y1="0" x2="1200" y2="0"/>
    <line x1="0" y1="60" x2="1200" y2="60"/>
    <line x1="0" y1="120" x2="1200" y2="120"/>
    <line x1="0" y1="180" x2="1200" y2="180"/>
    <line x1="0" y1="240" x2="1200" y2="240"/>
    <line x1="0" y1="300" x2="1200" y2="300"/>
    <line x1="0" y1="360" x2="1200" y2="360"/>
    <line x1="0" y1="420" x2="1200" y2="420"/>
    <line x1="0" y1="480" x2="1200" y2="480"/>
    <line x1="0" y1="540" x2="1200" y2="540"/>
    <line x1="0" y1="600" x2="1200" y2="600"/>
    <line x1="0" y1="0" x2="0" y2="630"/>
    <line x1="120" y1="0" x2="120" y2="630"/>
    <line x1="240" y1="0" x2="240" y2="630"/>
    <line x1="360" y1="0" x2="360" y2="630"/>
    <line x1="480" y1="0" x2="480" y2="630"/>
    <line x1="600" y1="0" x2="600" y2="630"/>
    <line x1="720" y1="0" x2="720" y2="630"/>
    <line x1="840" y1="0" x2="840" y2="630"/>
    <line x1="960" y1="0" x2="960" y2="630"/>
    <line x1="1080" y1="0" x2="1080" y2="630"/>
    <line x1="1200" y1="0" x2="1200" y2="630"/>
  </g>
  <!-- Shield icon -->
  <g transform="translate(540, 120)">
    <path d="M60 0L0 30v40c0 38.65 25.6 74.75 60 83.65C94.4 144.75 120 108.65 120 70V30L60 0z" fill="url(#shield-fill)" stroke="url(#accent)" stroke-width="2"/>
    <path d="M45 75l12 12 20-24" stroke="#22D3EE" stroke-width="4" stroke-linecap="round" stroke-linejoin="round" fill="none"/>
  </g>
  <!-- Company name -->
  <text x="600" y="310" text-anchor="middle" font-family="Arial, Helvetica, sans-serif" font-size="52" font-weight="700" fill="#F1F5F9">
    <tspan>Sanlufer</tspan><tspan fill="#22D3EE">Seguridad</tspan>
  </text>
  <!-- Tagline -->
  <text x="600" y="370" text-anchor="middle" font-family="Arial, Helvetica, sans-serif" font-size="24" fill="#94A3B8">
    Seguridad Electr&#243;nica Profesional en toda Colombia
  </text>
  <!-- Services -->
  <text x="600" y="420" text-anchor="middle" font-family="Arial, Helvetica, sans-serif" font-size="18" fill="#22D3EE" opacity="0.8">
    Videovigilancia con IA &#x2022; Automatizaci&#243;n &#x2022; Cableado Estructurado
  </text>
  <!-- Cities bar -->
  <rect x="100" y="470" width="1000" height="1" fill="url(#accent)" opacity="0.3"/>
  <text x="600" y="510" text-anchor="middle" font-family="Arial, Helvetica, sans-serif" font-size="16" fill="#64748B">
    Bogot&#225; &#x2022; Medell&#237;n &#x2022; Cali &#x2022; Armenia &#x2022; Pereira &#x2022; Barranquilla &#x2022; Cartagena &#x2022; Bucaramanga &#x2022; Pasto
  </text>
  <!-- Stats -->
  <g transform="translate(250, 550)" font-family="Arial, Helvetica, sans-serif">
    <text font-size="28" font-weight="700" fill="#22D3EE">+150</text>
    <text y="22" font-size="12" fill="#94A3B8">Clientes</text>
  </g>
  <g transform="translate(450, 550)" font-family="Arial, Helvetica, sans-serif">
    <text font-size="28" font-weight="700" fill="#22D3EE">+15</text>
    <text y="22" font-size="12" fill="#94A3B8">A&#241;os</text>
  </g>
  <g transform="translate(620, 550)" font-family="Arial, Helvetica, sans-serif">
    <text font-size="28" font-weight="700" fill="#22D3EE">+500</text>
    <text y="22" font-size="12" fill="#94A3B8">Proyectos</text>
  </g>
  <g transform="translate(830, 550)" font-family="Arial, Helvetica, sans-serif">
    <text font-size="28" font-weight="700" fill="#22D3EE">24/7</text>
    <text y="22" font-size="12" fill="#94A3B8">Soporte</text>
  </g>
  <!-- Border accent -->
  <rect x="0" y="0" width="1200" height="4" fill="url(#accent)"/>
  <rect x="0" y="626" width="1200" height="4" fill="url(#accent)" opacity="0.5"/>
</svg>
